<svg width="140" height="28" viewBox="0 0 140 28" fill="none" xmlns="http://www.w3.org/2000/svg">
<g clip-path="url(#clip0_4080_7881)">
<path d="M30.8358 15.8047C30.8203 14.7602 30.9743 13.7208 31.2912 12.7329C31.5631 11.8759 32.0019 11.0906 32.5786 10.429C33.1386 9.79836 33.8236 9.31026 34.5831 9.00055C35.4127 8.66112 36.2949 8.49304 37.183 8.50521C38.01 8.4961 38.8309 8.65911 39.5999 8.98518C40.3212 9.2941 40.9728 9.76402 41.5112 10.3637C42.0598 10.9826 42.4855 11.7141 42.7627 12.514C43.0662 13.4096 43.2156 14.3567 43.2038 15.3094C43.2179 16.3531 43.0664 17.3919 42.7556 18.3812C42.4853 19.2373 42.049 20.0224 41.4754 20.6851C40.9118 21.3149 40.2264 21.805 39.4672 22.1212C38.6383 22.4638 37.7558 22.6332 36.8674 22.6204C36.0399 22.6302 35.2187 22.4658 34.4504 22.1366C33.7302 21.822 33.0792 21.3499 32.5391 20.7504C31.9895 20.1332 31.5625 19.403 31.284 18.6039C30.9756 17.7082 30.8236 16.7593 30.8358 15.8047ZM33.2061 15.5321C33.1936 16.2675 33.2929 17.0003 33.5002 17.7016C33.677 18.2814 33.9557 18.8197 34.3214 19.2874C34.658 19.7089 35.0782 20.0447 35.5513 20.2704C36.0224 20.4974 36.5337 20.6126 37.0503 20.6083C37.5677 20.6128 38.0804 20.503 38.5564 20.2858C39.022 20.07 39.4345 19.7414 39.7613 19.3258C40.117 18.8651 40.385 18.3341 40.5502 17.763C40.7491 17.0573 40.8447 16.3229 40.8335 15.5858C40.8436 14.854 40.7431 14.1253 40.5358 13.4279C40.3616 12.8476 40.0839 12.3091 39.7183 11.842C39.3827 11.4225 38.9653 11.0869 38.4954 10.859C38.0254 10.6326 37.5154 10.5174 37.0001 10.5211C36.4803 10.5155 35.965 10.6253 35.4868 10.8437C35.0216 11.0602 34.6093 11.3887 34.2819 11.8036C33.9192 12.2661 33.6462 12.8013 33.4786 13.3779C33.2837 14.0764 33.1918 14.8032 33.2061 15.5321Z" fill="#0D0077"/>
<path d="M45.671 10.7131C45.5598 10.7191 45.4487 10.7 45.3449 10.657C45.2411 10.614 45.1469 10.5481 45.0685 10.4635C44.9871 10.3658 44.9249 10.2515 44.8854 10.1275C44.846 10.0035 44.8302 9.87228 44.839 9.74164C44.8225 9.47554 44.9051 9.21327 45.0685 9.01207C45.1476 8.92889 45.242 8.86437 45.3458 8.82271C45.4496 8.78104 45.5603 8.76314 45.671 8.77016H47.1053L47.4173 6.21668C47.4456 5.8945 47.5715 5.59107 47.7759 5.35272C47.8718 5.25661 47.9846 5.18197 48.1078 5.13318C48.2309 5.08439 48.3619 5.06241 48.4931 5.06857C48.6154 5.06096 48.7377 5.08058 48.8525 5.12618C48.9673 5.17179 49.0721 5.24238 49.1601 5.33351C49.2468 5.43734 49.3128 5.55899 49.3541 5.69103C49.3954 5.82306 49.4111 5.96271 49.4004 6.10148V8.78936H52.0468C52.1588 8.78352 52.2707 8.80308 52.3751 8.84675C52.4796 8.89042 52.5742 8.95723 52.6528 9.04279C52.8136 9.2454 52.8947 9.50699 52.8788 9.77235C52.8872 9.90267 52.8716 10.0335 52.8329 10.1574C52.7941 10.2812 52.7329 10.3957 52.6528 10.4942C52.5739 10.5791 52.4791 10.6452 52.3747 10.6882C52.2703 10.7312 52.1586 10.7502 52.0468 10.7438H49.4004V18.5195C49.4004 19.2606 49.5223 19.7751 49.759 20.0746C49.9022 20.2309 50.0755 20.3517 50.267 20.4286C50.4584 20.5056 50.6632 20.5368 50.867 20.52C51.0338 20.5219 51.2004 20.5104 51.3655 20.4855C51.4869 20.4653 51.6067 20.4358 51.7241 20.3972L52.0074 20.3088C52.0894 20.2863 52.1737 20.2747 52.2584 20.2743C52.3575 20.2726 52.456 20.2908 52.5489 20.328C52.6311 20.3636 52.7047 20.4188 52.764 20.4893C52.8253 20.5635 52.8749 20.6477 52.911 20.7389C52.9484 20.8389 52.9667 20.946 52.9648 21.0538C52.9696 21.2062 52.9401 21.3577 52.8788 21.4953C52.8171 21.6129 52.7398 21.7203 52.6493 21.814C52.5698 21.8971 52.482 21.9705 52.3875 22.0329C52.2425 22.1304 52.0872 22.2091 51.9249 22.2672C51.7062 22.3523 51.4805 22.4153 51.2507 22.4553C50.9509 22.508 50.6473 22.5324 50.3435 22.5283C49.2354 22.5283 48.4142 22.2479 47.8799 21.6796C47.3456 21.1114 47.0802 20.2666 47.0802 19.1415V10.7131H45.671Z" fill="#0D0077"/>
<path d="M55.0662 4.57323C55.0636 4.34429 55.1038 4.11709 55.1846 3.90509C55.2616 3.70724 55.3745 3.5277 55.5167 3.37678C55.6588 3.22586 55.8275 3.10657 56.0129 3.02578C56.2171 2.93897 56.4352 2.89591 56.6548 2.89906C57.0646 2.8945 57.4593 3.06438 57.7521 3.37136C57.8877 3.51842 57.996 3.69172 58.0713 3.88206C58.1539 4.08276 58.1955 4.30011 58.1932 4.51947C58.195 4.74622 58.1535 4.97097 58.0713 5.17992C57.9989 5.37828 57.8876 5.55768 57.7449 5.70597C57.6005 5.85362 57.4314 5.97086 57.2465 6.05157C57.0423 6.13838 56.8242 6.18143 56.6046 6.17827C56.3944 6.18 56.1859 6.13693 55.9914 6.05157C55.8131 5.96961 55.6493 5.8553 55.5073 5.71366C55.3648 5.56357 55.2523 5.3841 55.1765 5.18609C55.1007 4.98809 55.0632 4.77568 55.0662 4.56171V4.57323ZM55.4822 9.78388C55.4734 9.63392 55.4941 9.48365 55.5429 9.34278C55.5917 9.20191 55.6675 9.07356 55.7655 8.96599C56.0203 8.77826 56.3222 8.67775 56.6315 8.67775C56.9408 8.67775 57.2427 8.77826 57.4975 8.96599C57.5973 9.07246 57.6748 9.20045 57.7249 9.34147C57.775 9.48248 57.7965 9.63329 57.788 9.78388V21.3379C57.7965 21.4885 57.775 21.6393 57.7249 21.7803C57.6748 21.9213 57.5973 22.0493 57.4975 22.1558C57.2427 22.3435 56.9408 22.444 56.6315 22.444C56.3222 22.444 56.0203 22.3435 55.7655 22.1558C55.6675 22.0482 55.5917 21.9199 55.5429 21.779C55.4941 21.6381 55.4734 21.4879 55.4822 21.3379V9.78388Z" fill="#0D0077"/>
<path d="M61.2054 15.8047C61.1899 14.7602 61.344 13.7208 61.6608 12.7329C61.9327 11.8759 62.3715 11.0906 62.9482 10.429C63.5089 9.79916 64.1937 9.31118 64.9527 9.00055C65.7824 8.66112 66.6645 8.49304 67.5526 8.50521C68.3796 8.4961 69.2005 8.65911 69.9695 8.98518C70.6908 9.2941 71.3424 9.76402 71.8808 10.3637C72.4306 10.9815 72.8565 11.7133 73.1324 12.514C73.4358 13.4096 73.5852 14.3567 73.5734 15.3094C73.5876 16.3531 73.436 17.3919 73.1252 18.3812C72.8563 19.238 72.4199 20.0234 71.845 20.6851C71.2814 21.3149 70.596 21.805 69.8368 22.1212C69.0079 22.4638 68.1254 22.6332 67.237 22.6204C66.4096 22.6298 65.5885 22.4654 64.8201 22.1366C64.0998 21.822 63.4488 21.3499 62.9087 20.7504C62.3591 20.1332 61.9321 19.403 61.6536 18.6039C61.3452 17.7082 61.1932 16.7593 61.2054 15.8047ZM63.5757 15.5321C63.5642 16.2678 63.6648 17.0005 63.8734 17.7016C64.0475 18.2819 64.3252 18.8204 64.691 19.2874C65.0277 19.7089 65.4478 20.0447 65.9209 20.2704C66.3923 20.4964 66.9034 20.6117 67.4199 20.6083C67.9373 20.6128 68.45 20.503 68.926 20.2858C69.3916 20.07 69.8041 19.7414 70.1309 19.3258C70.4867 18.8651 70.7547 18.3341 70.9198 17.763C71.1205 17.0577 71.2161 16.323 71.2031 15.5858C71.2132 14.854 71.1127 14.1253 70.9055 13.4279C70.732 12.8449 70.4544 12.3037 70.0879 11.8343C69.7531 11.414 69.3354 11.0783 68.865 10.8513C68.395 10.625 67.885 10.5097 67.3697 10.5134C66.8499 10.5078 66.3346 10.6177 65.8564 10.836C65.3922 11.0525 64.9811 11.3811 64.6551 11.7959C64.2942 12.2571 64.0235 12.7911 63.859 13.3664C63.6593 14.068 63.5637 14.7988 63.5757 15.5321Z" fill="#0D0077"/>
<path d="M77.0016 9.67635C76.9881 9.53816 77.0036 9.39849 77.0469 9.26751C77.0902 9.13654 77.1603 9.01758 77.2521 8.91933C77.3438 8.82108 77.4549 8.74602 77.5773 8.69961C77.6996 8.65321 77.83 8.63664 77.9591 8.65112C78.0967 8.64733 78.2338 8.66942 78.3643 8.7164C78.4781 8.75813 78.5813 8.82784 78.6655 8.91992C78.7553 9.0165 78.826 9.1314 78.8735 9.25781C78.9328 9.40902 78.9738 9.56775 78.9954 9.73011L79.1066 10.6594H79.146C79.4041 10.2477 79.7226 9.88334 80.0891 9.58036C80.2657 9.43843 80.4514 9.31011 80.645 9.19637C80.8681 9.06409 81.1007 8.95111 81.3406 8.85848C81.6089 8.75373 81.8848 8.67282 82.1654 8.61657C82.4834 8.55186 82.8064 8.51972 83.1301 8.52057C83.805 8.50939 84.476 8.63175 85.1095 8.88152C85.6765 9.10483 86.1872 9.46635 86.6013 9.93747C87.0272 10.44 87.3476 11.0344 87.5408 11.6807C87.7722 12.4574 87.8836 13.2693 87.8707 14.0845V21.3456C87.879 21.4958 87.8578 21.6462 87.8083 21.7871C87.7589 21.928 87.6824 22.0562 87.5838 22.1635C87.3424 22.3748 87.034 22.4779 86.7232 22.4515C86.4092 22.477 86.0978 22.3741 85.8518 22.1635C85.752 22.057 85.6745 21.929 85.6244 21.788C85.5743 21.647 85.5528 21.4962 85.5613 21.3456V14.4339C85.5717 13.8473 85.5065 13.262 85.3677 12.6945C85.2567 12.2516 85.0587 11.8392 84.7868 11.4849C84.5366 11.1699 84.2157 10.9282 83.8544 10.7822C83.4518 10.6285 83.0267 10.5531 82.5993 10.5595C82.338 10.5575 82.0776 10.5924 81.8247 10.6632C81.5945 10.7252 81.371 10.8127 81.1578 10.9243C80.9557 11.0306 80.7646 11.1593 80.5876 11.3083C80.4253 11.4385 80.2719 11.5809 80.1286 11.7345C79.8022 12.071 79.5264 12.4596 79.311 12.8865V21.3341C79.3195 21.4846 79.298 21.6355 79.2479 21.7765C79.1978 21.9175 79.1203 22.0455 79.0205 22.1519C78.7745 22.3626 78.4632 22.4655 78.1491 22.4399C77.8372 22.4662 77.5278 22.3631 77.2849 22.1519C77.1876 22.0438 77.1123 21.9154 77.0635 21.7747C77.0148 21.6339 76.9937 21.4839 77.0016 21.3341V9.67635Z" fill="#0D0077"/>
<path d="M91.3993 12.4679C91.3976 11.9381 91.5028 11.4142 91.7077 10.932C91.9199 10.4427 92.2354 10.0128 92.6293 9.67635C93.0793 9.29486 93.5928 9.00822 94.1426 8.8316C94.8177 8.61257 95.5207 8.50763 96.226 8.52057C96.617 8.51722 97.0077 8.54417 97.3951 8.60121C97.6956 8.647 97.9919 8.72022 98.2808 8.82008C98.4983 8.89229 98.7085 8.98747 98.9083 9.10422C99.0388 9.1805 99.1593 9.27474 99.2669 9.38453C99.373 9.49312 99.4572 9.62379 99.5144 9.76851C99.5637 9.9149 99.5868 10.0699 99.5825 10.2255C99.5838 10.3413 99.563 10.4563 99.5215 10.5634C99.4793 10.6619 99.421 10.7516 99.3494 10.8283C99.276 10.907 99.188 10.9684 99.0912 11.0088C98.9879 11.0552 98.8769 11.0787 98.7649 11.0779C98.6113 11.075 98.4595 11.0425 98.3167 10.9819L97.7501 10.7745C97.5074 10.6906 97.2608 10.6202 97.0113 10.5634C96.6828 10.4969 96.3488 10.466 96.0145 10.4712C95.6577 10.4626 95.3016 10.5078 94.9566 10.6056C94.6991 10.6804 94.4562 10.8039 94.2394 10.9704C94.0556 11.1107 93.9076 11.2982 93.8091 11.5156C93.718 11.7302 93.6715 11.9634 93.6728 12.1991C93.6622 12.5267 93.7629 12.8473 93.9561 13.1015C94.1637 13.3582 94.4158 13.5694 94.6984 13.7235C95.0358 13.907 95.3859 14.0623 95.7455 14.1881L96.9504 14.6259C97.3628 14.7795 97.7644 14.9523 98.1553 15.1404C98.5358 15.322 98.8878 15.5655 99.1988 15.8623C99.5377 16.1793 99.806 16.5736 99.984 17.0161C100.162 17.4586 100.245 17.9382 100.228 18.4196C100.232 18.9855 100.12 19.5454 99.8981 20.0592C99.675 20.577 99.3438 21.0329 98.9299 21.3917C98.4527 21.795 97.9089 22.0985 97.3269 22.2863C96.6091 22.5212 95.8613 22.6339 95.1108 22.6204C94.6528 22.6241 94.1952 22.5946 93.7409 22.5321C93.3996 22.4861 93.0624 22.409 92.7333 22.3017C92.4919 22.2241 92.2588 22.1199 92.0376 21.9907C91.895 21.9072 91.7625 21.8054 91.6432 21.6873C91.5454 21.5848 91.4664 21.4637 91.4101 21.3302C91.3502 21.1786 91.3221 21.0148 91.3276 20.8503C91.3226 20.7308 91.34 20.6115 91.3788 20.4994C91.4176 20.3872 91.477 20.2846 91.5535 20.1975C91.6302 20.1136 91.7225 20.048 91.8244 20.005C91.9264 19.962 92.0357 19.9425 92.1452 19.9479C92.3009 19.9523 92.4538 19.993 92.5934 20.0669C92.7584 20.1476 92.952 20.2359 93.1995 20.3242C93.4823 20.4247 93.771 20.5055 94.0637 20.5661C94.4706 20.6449 94.8838 20.6809 95.2973 20.6736C95.6995 20.6807 96.1009 20.6316 96.4914 20.5277C96.786 20.4461 97.0634 20.3053 97.309 20.113C97.5147 19.9498 97.6797 19.7348 97.7895 19.4871C97.8929 19.2462 97.9467 18.9843 97.9473 18.7191C97.9575 18.3781 97.856 18.044 97.6604 17.7746C97.4567 17.5065 97.2041 17.2857 96.9181 17.1256C96.5826 16.9337 96.2323 16.7731 95.871 16.6456C95.4801 16.5074 95.0821 16.3615 94.6733 16.2079C94.2645 16.0543 93.8665 15.8815 93.4756 15.6895C93.0973 15.504 92.744 15.2651 92.4249 14.9791C92.1123 14.6998 91.8582 14.3531 91.679 13.9616C91.4788 13.4937 91.3831 12.9823 91.3993 12.4679Z" fill="#0D0077"/>
<path d="M103.617 3.452C103.608 3.30206 103.629 3.15188 103.678 3.01104C103.726 2.8702 103.802 2.74182 103.9 2.63411C104.143 2.42223 104.452 2.31903 104.764 2.34613C105.077 2.32119 105.387 2.42409 105.632 2.63411C105.731 2.74088 105.809 2.86892 105.859 3.00986C105.909 3.1508 105.931 3.30146 105.922 3.452V8.66264C105.922 8.97751 105.922 9.28085 105.922 9.56884C105.922 9.85682 105.887 10.164 105.851 10.4981H105.89C106.161 10.1206 106.484 9.78915 106.848 9.51508C107.005 9.37939 107.173 9.25862 107.35 9.15414C107.565 9.02881 107.788 8.91974 108.017 8.82775C108.275 8.72561 108.542 8.64851 108.813 8.59736C109.116 8.54193 109.423 8.51495 109.731 8.51673C110.406 8.50554 111.077 8.62791 111.71 8.87767C112.278 9.10221 112.789 9.46351 113.206 9.93362C113.63 10.4371 113.951 11.0312 114.145 11.6769C114.375 12.4538 114.485 13.2657 114.471 14.0806V21.3417C114.48 21.4917 114.46 21.642 114.411 21.7828C114.362 21.9237 114.286 22.0521 114.188 22.1596C113.933 22.3474 113.631 22.4479 113.322 22.4479C113.013 22.4479 112.711 22.3474 112.456 22.1596C112.356 22.0532 112.279 21.9252 112.229 21.7841C112.179 21.6431 112.157 21.4923 112.166 21.3417V14.4301C112.177 13.8432 112.11 13.2576 111.968 12.6906C111.86 12.2465 111.662 11.8334 111.388 11.4811C111.137 11.1661 110.816 10.9243 110.455 10.7784C110.054 10.6245 109.63 10.5491 109.204 10.5557C108.941 10.5534 108.679 10.5883 108.425 10.6594C108.195 10.722 107.972 10.8094 107.759 10.9205C107.558 11.0277 107.368 11.1563 107.192 11.3044C107.028 11.4346 106.874 11.577 106.729 11.7307C106.404 12.0682 106.128 12.4566 105.912 12.8826V21.3302C105.92 21.4808 105.899 21.6316 105.849 21.7726C105.799 21.9137 105.721 22.0416 105.621 22.1481C105.376 22.3581 105.066 22.461 104.753 22.4361C104.441 22.4632 104.132 22.36 103.889 22.1481C103.791 22.0406 103.715 21.9122 103.667 21.7713C103.618 21.6304 103.597 21.4802 103.606 21.3302L103.617 3.452Z" fill="#0D0077"/>
<path d="M118.326 4.57324C118.323 4.34387 118.365 4.11629 118.448 3.9051C118.522 3.70775 118.633 3.52872 118.775 3.37905C118.918 3.22776 119.087 3.10778 119.273 3.02579C119.477 2.93926 119.695 2.89621 119.915 2.89907C120.125 2.89734 120.334 2.94042 120.528 3.02579C120.891 3.18716 121.181 3.49457 121.335 3.88206C121.414 4.08373 121.455 4.30061 121.453 4.51947C121.455 4.7458 121.414 4.9702 121.335 5.17993C121.261 5.37852 121.149 5.55791 121.005 5.70598C120.862 5.85351 120.694 5.97077 120.51 6.05157C120.305 6.1384 120.086 6.18144 119.865 6.17828C119.656 6.18043 119.448 6.13733 119.255 6.05157C119.075 5.97057 118.91 5.85618 118.767 5.71367C118.63 5.56932 118.522 5.39695 118.448 5.20681C118.366 5.00728 118.325 4.7913 118.326 4.57324ZM118.742 9.78388C118.734 9.63402 118.756 9.48401 118.804 9.34328C118.853 9.20254 118.928 9.07411 119.026 8.966C119.269 8.75482 119.578 8.65171 119.89 8.67801C120.204 8.65247 120.515 8.75538 120.761 8.966C120.861 9.07247 120.939 9.20046 120.989 9.34147C121.039 9.48248 121.06 9.63329 121.052 9.78388V21.3379C121.06 21.4885 121.039 21.6393 120.989 21.7803C120.939 21.9213 120.861 22.0493 120.761 22.1558C120.515 22.3664 120.204 22.4693 119.89 22.4438C119.578 22.4701 119.269 22.367 119.026 22.1558C118.928 22.0477 118.853 21.9192 118.804 21.7785C118.756 21.6378 118.734 21.4878 118.742 21.3379V9.78388Z" fill="#0D0077"/>
<path d="M124.519 10.7131C124.408 10.7194 124.296 10.7005 124.191 10.6575C124.087 10.6145 123.992 10.5484 123.913 10.4635C123.833 10.3653 123.771 10.2509 123.731 10.1271C123.692 10.0032 123.676 9.87222 123.684 9.74164C123.669 9.47581 123.752 9.21431 123.913 9.01207C123.992 8.92652 124.087 8.85971 124.191 8.81604C124.295 8.77237 124.407 8.75281 124.519 8.75864H125.904V7.32638C125.892 6.58859 125.997 5.85399 126.212 5.15304C126.399 4.55989 126.702 4.0165 127.101 3.55952C127.494 3.1236 127.971 2.78541 128.5 2.56885C129.089 2.33098 129.714 2.21375 130.343 2.22327C130.758 2.21254 131.171 2.27613 131.566 2.41141C131.829 2.49142 132.073 2.63013 132.283 2.81843C132.378 2.91732 132.452 3.03634 132.502 3.16786C132.55 3.31049 132.573 3.46156 132.57 3.61328C132.572 3.74361 132.554 3.87345 132.516 3.99726C132.479 4.1014 132.423 4.19664 132.351 4.27756C132.282 4.35791 132.198 4.42088 132.104 4.46188C132.008 4.50252 131.906 4.52336 131.802 4.52332C131.701 4.52393 131.601 4.50707 131.505 4.4734L131.193 4.37356C131.078 4.339 130.945 4.3006 130.795 4.26604C130.617 4.2281 130.435 4.21009 130.253 4.21229C129.972 4.19631 129.691 4.24923 129.432 4.36701C129.173 4.48478 128.943 4.66431 128.758 4.89194C128.399 5.34888 128.224 6.08996 128.224 7.1152V8.77016H130.454C130.566 8.76505 130.678 8.78493 130.782 8.82857C130.886 8.8722 130.981 8.93862 131.06 9.02359C131.221 9.22621 131.302 9.4878 131.286 9.75316C131.295 9.88347 131.279 10.0143 131.24 10.1382C131.201 10.262 131.14 10.3765 131.06 10.475C130.981 10.5593 130.886 10.625 130.782 10.668C130.677 10.711 130.566 10.7302 130.454 10.7246H128.224V21.3494C128.232 21.4997 128.211 21.6501 128.161 21.791C128.112 21.9319 128.035 22.0601 127.937 22.1673C127.695 22.3786 127.387 22.4818 127.076 22.4553C126.762 22.4808 126.451 22.3779 126.205 22.1673C126.105 22.0608 126.027 21.9329 125.977 21.7918C125.927 21.6508 125.906 21.5 125.914 21.3494V10.7131H124.519Z" fill="#0D0077"/>
<path d="M132.713 10.7131C132.602 10.7194 132.49 10.7005 132.385 10.6575C132.281 10.6145 132.186 10.5484 132.107 10.4635C132.027 10.365 131.966 10.2505 131.927 10.1267C131.888 10.0028 131.873 9.87196 131.881 9.74164C131.865 9.47628 131.946 9.21469 132.107 9.01207C132.186 8.92652 132.281 8.85971 132.385 8.81604C132.489 8.77237 132.601 8.75281 132.713 8.75864H134.148L134.463 6.20516C134.49 5.88247 134.616 5.57843 134.822 5.3412C134.918 5.24509 135.031 5.17044 135.154 5.12165C135.277 5.07286 135.408 5.05089 135.539 5.05705C135.661 5.04897 135.784 5.06837 135.899 5.114C136.014 5.15963 136.118 5.23048 136.206 5.322C136.293 5.42582 136.359 5.54747 136.4 5.67951C136.441 5.81154 136.457 5.95119 136.446 6.08996V8.77784H139.096C139.208 8.77231 139.319 8.79202 139.423 8.83569C139.527 8.87936 139.621 8.94601 139.699 9.03127C139.861 9.2335 139.943 9.49501 139.928 9.76083C139.936 9.89141 139.92 10.0224 139.881 10.1463C139.841 10.2701 139.78 10.3845 139.699 10.4827C139.62 10.5673 139.526 10.6332 139.422 10.6762C139.319 10.7192 139.208 10.7383 139.096 10.7323H136.446V18.508C136.446 19.249 136.568 19.7636 136.805 20.0631C136.949 20.2196 137.123 20.3407 137.315 20.4176C137.507 20.4945 137.712 20.5256 137.917 20.5085C138.082 20.5104 138.248 20.4989 138.411 20.4739C138.533 20.4538 138.653 20.4243 138.77 20.3856L139.057 20.2973C139.139 20.2743 139.223 20.2626 139.308 20.2628C139.407 20.2618 139.505 20.28 139.598 20.3165C139.679 20.3531 139.751 20.4081 139.81 20.4778C139.871 20.5519 139.921 20.6362 139.957 20.7274C139.996 20.8272 140.015 20.9342 140.014 21.0423C140.018 21.195 139.987 21.3465 139.925 21.4838C139.866 21.6022 139.789 21.7097 139.699 21.8025C139.618 21.8854 139.529 21.9588 139.433 22.0214C139.289 22.1182 139.135 22.1968 138.974 22.2556C138.755 22.3398 138.53 22.4027 138.3 22.4438C137.999 22.4964 137.694 22.5208 137.389 22.5167C136.281 22.5167 135.46 22.2364 134.926 21.6681C134.392 21.0998 134.126 20.2551 134.126 19.13V10.7131H132.713Z" fill="#0D0077"/>
<path fill-rule="evenodd" clip-rule="evenodd" d="M15.703 19.5985L15.7102 19.5946H15.7388L15.746 19.5908H15.7568L15.7639 19.5869H15.7711L15.7783 19.5831H15.789L15.8106 19.5716H15.8213L15.8285 19.5639H15.8357L15.8464 19.5562L15.8536 19.5524L15.8643 19.5485L15.8787 19.5409L15.8895 19.5332L15.9002 19.5293L15.9181 19.5178L15.9361 19.5025L15.954 19.4909L15.9755 19.4756L15.9934 19.4564L16.015 19.441L16.0329 19.4218L16.0544 19.4026L16.0759 19.3796L16.0939 19.3566L16.1369 19.3105L16.2014 19.2298L16.2445 19.1684L16.2875 19.1031L16.3305 19.0417L16.37 18.9764L16.413 18.8996L16.4596 18.819L16.5529 18.6347L16.6425 18.4465L16.7322 18.2353L16.8254 18.0126L16.9222 17.763L17.0119 17.5134L17.1947 16.9605L17.3848 16.35L17.7577 14.9945L18.5072 11.8689L20.0026 5.36423L20.3791 3.9435L20.5691 3.29457L20.7592 2.69556L20.9493 2.14646L21.0425 1.90071L21.1393 1.65496L21.2326 1.43609L21.333 1.22106L21.4262 1.03291L21.5266 0.848601L21.566 0.787164L21.6019 0.725727L21.6414 0.66429L21.6808 0.606692L21.7812 0.468459L21.8314 0.407021L21.8601 0.376303L21.8852 0.345584L21.9103 0.318705L21.939 0.291827L21.9641 0.268788L21.9928 0.241909L22.0179 0.21887L22.0753 0.172792L22.1613 0.115195L22.2474 0.0691168L22.2653 0.0614372L22.2797 0.0537575L22.294 0.0499177L22.3083 0.0422381L22.3263 0.0383982L22.3406 0.0345584L22.355 0.0268788L22.3729 0.0230389L22.4016 0.0153593L22.4195 0.0115195H22.4339L22.4518 0.00767965L22.4661 0.00383982H22.4984L22.5127 0H22.5952L22.6096 0.00383982H22.6275L22.6418 0.00767965H22.6598L22.6885 0.0153593L22.7064 0.0191991L22.7207 0.0230389L22.7387 0.0268788L22.753 0.0307186L22.7674 0.0383982L22.7817 0.0422381L22.7996 0.0460779L22.814 0.0537575L22.8283 0.0575974L22.8427 0.065277L22.8606 0.0729567L22.9323 0.111355L23.0184 0.168952L23.0471 0.191991L23.0722 0.21503L23.1295 0.261108L23.1797 0.314866L23.2084 0.341744L23.2335 0.372463L23.2873 0.43006L23.3124 0.464619L23.3375 0.495337L23.3877 0.564454L23.4523 0.65661L23.5132 0.752606L23.5634 0.837082L23.6136 0.925398L23.7069 1.10203L23.8073 1.30938L23.9005 1.51673L23.9973 1.75096L24.0906 1.98903L24.1874 2.25014L24.2806 2.52276L24.5388 3.32145L24.6894 3.82447L29.0751 21.1421L29.0822 21.169L29.0858 21.1997L29.1002 21.2534L29.1073 21.3149L29.1109 21.3417L29.1181 21.4032V21.5491L29.1073 21.6413L29.1038 21.6681L29.1002 21.6988L29.093 21.7296L29.0858 21.7564L29.0787 21.7872L29.0643 21.8409L29.0536 21.8716L29.0105 21.9792L28.9962 22.006L28.9854 22.0329L28.9711 22.056L28.9567 22.0828L28.9281 22.1289L28.9137 22.1558L28.8241 22.271L28.8025 22.2902L28.7846 22.3132L28.7631 22.3324L28.7416 22.3555L28.6985 22.3939L28.6734 22.4131L28.6519 22.4323L28.6268 22.4476L28.6053 22.4668L28.53 22.5129L28.5049 22.5244L28.4798 22.5398L28.4511 22.5513L28.3758 22.5858L28.3471 22.5974L28.322 22.605L28.2933 22.6127L28.2682 22.6204L28.2109 22.6358L28.1858 22.6396L28.1571 22.6473L28.071 22.6588H28.0423L28.0136 22.6626H27.9276L27.8989 22.6588H27.8702L27.7554 22.6434L27.6407 22.6127L27.6156 22.605L27.5869 22.5974L27.5618 22.5858L27.5331 22.5743L27.4829 22.5513L27.4542 22.5398L27.4327 22.5244L27.4076 22.5129L27.3574 22.4822L27.3359 22.4668L27.3108 22.4515L27.2893 22.4323L27.2642 22.4169L27.1781 22.3401L27.1171 22.2748L27.0992 22.2518L27.0777 22.2326L27.0598 22.2057L27.0454 22.1827L27.0096 22.1366L26.9952 22.1097L26.9773 22.0828L26.9629 22.0598L26.9522 22.0329L26.9235 21.9792L26.8805 21.8716L26.8733 21.8409L26.8625 21.814L26.8554 21.7872L25.005 14.5453L24.607 13.1053L24.2053 11.8036L24.0081 11.2123L23.8073 10.667L23.7105 10.4174L23.6101 10.1717L23.5132 9.95283L23.4128 9.73395L23.3196 9.5458L23.2192 9.35765L23.1726 9.27702L23.1224 9.19638L23.0757 9.11574L23.0255 9.03895L22.9323 8.90839L22.8857 8.84696L22.8355 8.78552L22.7925 8.73176L22.7674 8.70872L22.7458 8.68184L22.7243 8.66264L22.7028 8.6396L22.6777 8.62041L22.6562 8.59737L22.6239 8.57049L22.606 8.55897L22.5916 8.54361L22.5558 8.52057L22.5414 8.50905L22.5235 8.49753L22.502 8.48601L22.4841 8.47449L22.4625 8.46297L22.441 8.45529L22.4231 8.44377L22.4052 8.43609L22.3836 8.42842H22.3765L22.355 8.42074H22.3478L22.337 8.4169L22.3299 8.41306H22.3119L22.3012 8.40922H22.2904L22.2832 8.40538H22.1828L22.1757 8.40922H22.1577L22.147 8.41306H22.1398L22.129 8.4169L22.1219 8.42074H22.1111L22.1004 8.42458L22.0932 8.42842L22.0753 8.43225L22.0537 8.43993L22.0358 8.44761L22.0143 8.45913L21.9964 8.46681L21.9533 8.48985L21.9354 8.50137L21.9139 8.51673L21.896 8.52825L21.8744 8.54361L21.8386 8.57433L21.8135 8.59353L21.792 8.61273L21.7704 8.63576L21.7489 8.65496L21.7238 8.678L21.6557 8.75096L21.5625 8.86615L21.4692 8.99671L21.419 9.06967L21.3724 9.14262L21.272 9.31157L21.1788 9.48053L21.0784 9.6802L20.9851 9.87987L20.8811 10.1103L20.7879 10.3406L20.5871 10.8475L20.3898 11.4081L20.189 12.0148L19.7874 13.3511L17.3956 22.5436L16.9903 23.9106L16.7895 24.5365L16.5851 25.124L16.3843 25.6654L16.2839 25.9111L16.1799 26.153L16.0795 26.3719L15.9755 26.5908L15.8751 26.7828L15.7675 26.9748L15.7173 27.0554L15.6671 27.1399L15.6133 27.2205L15.5595 27.2973L15.5093 27.3703L15.4555 27.4355L15.4018 27.5047L15.3731 27.5354L15.3444 27.5699L15.3193 27.5968L15.2906 27.6237L15.2655 27.6506L15.2081 27.7043L15.1794 27.7274L15.1507 27.7543L15.1221 27.7773L15.0862 27.8042L15.0467 27.831L14.993 27.8656L14.9141 27.9078L14.8818 27.9232L14.8495 27.9347L14.8208 27.9501L14.8029 27.9539L14.7886 27.9578L14.7742 27.9654L14.7563 27.9693L14.7419 27.9731L14.724 27.977L14.6953 27.9846L14.6774 27.9885L14.663 27.9923H14.6451L14.6308 27.9962H14.6128L14.5985 28H14.4515L14.4228 27.9923H14.4049L14.3905 27.9885L14.3726 27.9846L14.3439 27.977L14.326 27.9731L14.2973 27.9654L14.2793 27.9616L14.265 27.9539L14.2507 27.9501L14.2327 27.9424L14.2184 27.9386L14.1897 27.9232L14.1574 27.9117L14.1287 27.8963L14.1 27.8771L14.0678 27.8618L14.0104 27.8234L13.9817 27.8003L13.953 27.7811L13.9279 27.7581L13.8992 27.7312L13.8705 27.7082L13.8419 27.6813L13.8168 27.6544L13.7881 27.6275L13.7056 27.5392L13.6518 27.4739L13.6016 27.4087L13.5514 27.3395L13.4976 27.2628L13.3972 27.1092L13.3506 27.0285L13.2968 26.9364L13.2466 26.8442L13.1462 26.6561L13.0422 26.4449L12.9454 26.2298L12.7446 25.746L12.5473 25.2123L12.3501 24.6363L12.1529 24.0143L11.9556 23.3577L11.5612 21.9369L9.59965 14.1498L9.2052 12.7405L9.01155 12.0878L8.81432 11.4772L8.62068 10.9089L8.42704 10.3944L8.33022 10.1602L8.2334 9.92979L8.14016 9.72627L8.03975 9.52276L7.94652 9.34997L7.8999 9.26166L7.8497 9.17718L7.7206 8.96983L7.67398 8.90455L7.62737 8.84696L7.58075 8.78552L7.53772 8.7356L7.51262 8.70872L7.4911 8.68184L7.46958 8.66264L7.44807 8.6396L7.42655 8.62041L7.40504 8.59737L7.38352 8.58201L7.362 8.56281L7.34049 8.54745L7.31897 8.52825L7.30104 8.51673L7.27953 8.50137L7.2616 8.48985L7.24008 8.47833L7.22215 8.46681L7.20064 8.45529L7.18271 8.44761L7.16119 8.43993L7.14685 8.43225L7.13609 8.42842H7.12533L7.11816 8.42458L7.1074 8.42074L7.10023 8.4169H7.08947L7.0823 8.41306H7.07154L7.06437 8.40922H7.04644L7.03927 8.40538H6.94245L6.93527 8.40922H6.92452L6.91734 8.41306H6.89941L6.88866 8.4169L6.88148 8.42074H6.87073L6.85997 8.42458L6.8528 8.42842L6.83128 8.43609L6.82411 8.43993L6.80259 8.44761L6.76673 8.46297L6.7488 8.47449L6.73087 8.48217L6.70936 8.49753L6.69143 8.50905L6.62688 8.55513L6.58385 8.59353L6.56592 8.61273L6.5444 8.63193L6.5193 8.65496L6.49779 8.67416L6.47627 8.6972L6.45475 8.72408L6.42965 8.75096L6.38662 8.80472L6.33642 8.86999L6.2898 8.93527L6.23959 9.00439L6.19298 9.07734L6.14636 9.15414L6.10333 9.2271L6.00292 9.40373L5.91327 9.5842L5.81286 9.79155L5.71963 9.9989L5.61922 10.237L5.52599 10.4712L5.33234 10.9934L5.15663 11.508L5.00961 11.9572L2.19462 21.8064L2.18744 21.8256L2.18027 21.8409L2.15876 21.8793L2.148 21.9024L2.13365 21.9216L2.1229 21.9446L2.06552 22.0214L2.05118 22.0444L2.03683 22.0598L2.0189 22.0828L1.95077 22.1558L1.93284 22.1711L1.91491 22.1903L1.89698 22.2057L1.87546 22.2211L1.85753 22.2364L1.83602 22.2556L1.8145 22.271L1.79299 22.2825L1.77506 22.2979L1.74996 22.3132L1.72844 22.3247L1.70692 22.3401L1.68541 22.3516L1.66031 22.3631L1.63879 22.3747L1.61369 22.3862L1.59217 22.3939L1.56707 22.4054L1.54197 22.4131L1.52045 22.4246L1.47025 22.4399L1.44515 22.4438L1.39494 22.4591L1.31964 22.4707L1.29812 22.4745L1.26943 22.4783L1.24792 22.4822H1.07579L1.02559 22.4745H1.00049L0.978971 22.4707L0.953869 22.4668L0.932353 22.463L0.910837 22.4553L0.885736 22.4515L0.86422 22.4438L0.842704 22.4399L0.778156 22.4169L0.753055 22.4092L0.710023 22.3939L0.688507 22.3823L0.666991 22.3747L0.580928 22.3286L0.559412 22.3132L0.537896 22.3017L0.51638 22.2863L0.49845 22.271L0.476935 22.2595L0.455419 22.2403L0.437489 22.2249L0.415973 22.2095L0.398043 22.1942L0.380113 22.175L0.362183 22.1596L0.340668 22.1404L0.326324 22.1212L0.272534 22.0636L0.254604 22.0406L0.225916 22.0022L0.197229 21.9561L0.182885 21.9369L0.154197 21.8908L0.143439 21.8678L0.129095 21.8448L0.118337 21.8217L0.107579 21.7948L0.0860634 21.7488L0.0788914 21.7257L0.0681335 21.6988L0.0609616 21.6758L0.0537896 21.6489L0.0394457 21.6029L0.0322738 21.576L0.0286878 21.5529L0.0215158 21.5261L0.0179299 21.503L0.0143439 21.4761L0.0107579 21.4531L0.00717195 21.4262L0.00358597 21.4032V21.3763L0 21.3533V21.2342L0.00358597 21.2112V21.1882L0.0107579 21.169L1.54555 15.989L5.32517 3.40976L5.54392 2.76851L5.61564 2.56884L5.65867 2.46133L5.78776 2.16182L5.96706 1.77016L6.07105 1.55897L6.17863 1.34778L6.28263 1.15963L6.33642 1.06363L6.39379 0.971476L6.50137 0.810203L6.55875 0.733406L6.61612 0.65277L6.66991 0.587493L6.7237 0.518376L6.80976 0.426221L6.84204 0.395502L6.87073 0.364783L6.89583 0.341744L6.9532 0.287987L6.98548 0.264948L7.01416 0.241909L7.04644 0.21503L7.07513 0.195831L7.11099 0.172792L7.14326 0.149753L7.17553 0.130554L7.21139 0.111355L7.27594 0.0806363L7.30821 0.0691168L7.3369 0.0575974L7.40145 0.0345584L7.41938 0.0307186L7.43372 0.0268788L7.46958 0.0191991L7.48393 0.0153593L7.50186 0.0115195H7.5162L7.55206 0.00383982H7.58433L7.60227 0H7.68474L7.70267 0.00383982H7.73495L7.74929 0.00767965H7.76722L7.78515 0.0115195L7.79949 0.0153593L7.83535 0.0230389L7.8497 0.0268788H7.86763L7.88197 0.0345584L7.8999 0.0383982L7.99672 0.0729567L8.029 0.088316L8.05768 0.103675L8.08996 0.119035L8.11865 0.134394L8.14375 0.149753L8.16526 0.161273L8.29436 0.253428L8.32305 0.280307L8.35532 0.307186L8.38401 0.330225L8.41269 0.360943L8.44497 0.387822L8.52745 0.476138L8.58482 0.541415L8.6422 0.610532L8.74978 0.756445L8.80715 0.837082L8.86453 0.921558L8.91832 1.00603L8.96852 1.09435L9.0259 1.19035L9.18727 1.48985L9.29484 1.71256L9.39884 1.93527L9.51 2.1887L9.614 2.43829L9.82557 2.98738L10.0371 3.5864L10.2523 4.22765L10.4603 4.90346L10.8834 6.35491L12.9382 14.0077L13.3578 15.4054L13.5693 16.0505L13.7773 16.6572L13.9853 17.2139L14.1933 17.7208L14.2937 17.9473L14.4013 18.1739L14.5017 18.3697L14.6057 18.5655L14.6559 18.6539L14.7061 18.7345L14.7563 18.819L14.8101 18.8996L14.8567 18.9687L14.9069 19.0379L15.0073 19.1684L15.0539 19.2222L15.1256 19.299L15.1758 19.345L15.2009 19.3719L15.2404 19.4026L15.2583 19.418L15.2798 19.4334L15.2978 19.4487L15.3623 19.4948L15.3838 19.5063L15.4018 19.5178L15.4269 19.5293L15.4484 19.5409L15.4663 19.5485L15.5309 19.5716L15.5488 19.5793H15.5595L15.5811 19.5869H15.5882L15.599 19.5908H15.6205L15.6277 19.5946H15.6564L15.6671 19.5985H15.703Z" fill="#0D0077"/>
</g>
<defs>
<clipPath id="clip0_4080_7881">
<rect width="140" height="28" fill="white"/>
</clipPath>
</defs>
</svg>
